<svg id="Шар_1" data-name="Шар 1" xmlns="http://www.w3.org/2000/svg" viewBox="0 0 543.47 543.53"><defs><style>.cls-1{fill:#010101;}</style></defs><path class="cls-1" d="M606.12,154.82l-9.88-6.59c-16.47-10.71-37.89-6.59-48.59,9.88l-20.59,32.12V157.29c0-1.65-.83-4.94-2.47-5.77l-139.18-140a7.14,7.14,0,0,0-5.76-3.29H86.47c-4.94,0-8.24,3.3-8.24,8.23V543.52c0,5,3.3,8.24,8.24,8.24H518.82c4.94,0,8.23-3.29,8.23-8.24V342.58L616,203.4a35.45,35.45,0,0,0-9.89-48.59Zm-112,208.35L452.94,336,546,191.05l41.18,27.18Zm-47.77-11.53,36.24,23.89-56.83,48.59ZM387.89,36.23l111.18,112H387.89ZM510.6,478.46v56.83H94.71V24.7H371.42V157.29c0,4.94,3.3,8.23,8.24,8.23H510.6v50.24L434.83,334.35a3,3,0,0,0-.82,2.46L402.72,446.34A9.13,9.13,0,0,0,406,455.4c3.29,1.65,7.41,1.65,9.88-.82l86.47-73.29,1.65-1.65,7.41-10.71V478.46ZM602,194.34l-6.59,10.71-41.18-27.18,6.59-10.7c4.94-8.24,17.29-10.71,25.53-5.77l9.88,6.59c9.06,5.77,11.53,18.12,5.76,26.35Z" transform="translate(-78.23 -8.23)"/><path class="cls-1" d="M138.35,144.12H332.7c4.94,0,8.23-3.29,8.23-8.23V65.06c0-4.94-3.29-8.23-8.24-8.23H138.34c-4.94,0-8.23,3.29-8.23,8.23v70.83a8.25,8.25,0,0,0,8.23,8.23Zm8.24-70.82H324.47v54.35H146.59Z" transform="translate(-78.23 -8.23)"/><path class="cls-1" d="M138.35,210.82H436.47c4.94,0,8.23-3.29,8.23-8.23s-3.29-8.24-8.23-8.24H138.35c-4.94,0-8.23,3.29-8.23,8.23s3.29,8.24,8.23,8.24Z" transform="translate(-78.23 -8.23)"/><path class="cls-1" d="M138.35,268.47H436.47c4.94,0,8.23-3.29,8.23-8.23s-3.29-8.24-8.23-8.24H138.35c-4.94,0-8.23,3.29-8.23,8.24A8.25,8.25,0,0,0,138.35,268.47Z" transform="translate(-78.23 -8.23)"/><path class="cls-1" d="M138.35,326.12h280c4.94,0,8.23-3.29,8.23-8.23s-3.29-8.24-8.23-8.24h-280c-4.94,0-8.23,3.29-8.23,8.24A8.25,8.25,0,0,0,138.35,326.12Z" transform="translate(-78.23 -8.23)"/><path class="cls-1" d="M138.35,382.94H387.88c4.94,0,8.23-3.29,8.23-8.23s-3.29-8.24-8.23-8.24H138.35c-4.94,0-8.23,3.29-8.23,8.23S133.41,382.94,138.35,382.94Z" transform="translate(-78.23 -8.23)"/><path class="cls-1" d="M138.35,440.59H379.64c4.94,0,8.23-3.29,8.23-8.23s-3.29-8.24-8.23-8.24H138.35c-4.94,0-8.23,3.29-8.23,8.23s3.29,8.24,8.23,8.24Z" transform="translate(-78.23 -8.23)"/><path class="cls-1" d="M436.47,481.77H138.35c-4.94,0-8.23,3.29-8.23,8.23s3.29,8.24,8.23,8.24H436.47c4.94,0,8.23-3.29,8.23-8.24S441.41,481.77,436.47,481.77Z" transform="translate(-78.23 -8.23)"/></svg>