<svg id="Шар_1" data-name="Шар 1" xmlns="http://www.w3.org/2000/svg" viewBox="0 0 542.5 542.5"><path d="M612.5,175H560a8.75,8.75,0,0,0-8.75,8.75v8.75H385a8.76,8.76,0,0,0-6.19,2.56l-20.06,20.07-4.69-4.69a60.85,60.85,0,0,0-43.31-17.94h-162v-8.75A8.75,8.75,0,0,0,140,175H87.5a8.75,8.75,0,0,0-8.75,8.75v210a8.75,8.75,0,0,0,8.75,8.75H140a8.75,8.75,0,0,0,8.75-8.75V367.5l21,15.75A8.72,8.72,0,0,0,175,385h13.88l-4.07,4.07a33.5,33.5,0,0,0,23.69,57.18c.57,0,1.1-.13,1.67-.17,0,.57-.17,1.11-.17,1.67a33.53,33.53,0,0,0,33.5,33.5c.57,0,1.1-.13,1.67-.17,0,.57-.17,1.11-.17,1.67a33.53,33.53,0,0,0,33.5,33.5c.57,0,1.1-.13,1.67-.17,0,.57-.17,1.11-.17,1.67a33.5,33.5,0,0,0,57.19,23.69L350,528.62l12.82,12.82A33.5,33.5,0,0,0,420,517.75c0-.51,0-1,0-1.54,18.77,1,35-14.48,35-33.46,0-.51,0-1,0-1.54a33.68,33.68,0,0,0,35-33.46c0-.51,0-1,0-1.54a33.68,33.68,0,0,0,35-33.46,33.28,33.28,0,0,0-9.82-23.69L511.12,385H525a8.74,8.74,0,0,0,5.25-1.75l21-15.75v26.25A8.75,8.75,0,0,0,560,402.5h52.5a8.75,8.75,0,0,0,8.75-8.75v-210A8.75,8.75,0,0,0,612.5,175ZM131.25,385h-35V192.5h35Zm88.57,39.07h0a16,16,0,0,1-27.31-11.33,16.17,16.17,0,0,1,4.68-11.31l46.74-46.76A16,16,0,0,1,271.25,366a16.14,16.14,0,0,1-4.69,11.31Zm35,35h0a16,16,0,0,1-27.31-11.33,16.17,16.17,0,0,1,4.67-11.3h0l46.74-46.76A16,16,0,0,1,306.25,401a16.14,16.14,0,0,1-4.69,11.31Zm35,35h0a16,16,0,0,1-27.31-11.33,16.17,16.17,0,0,1,4.67-11.3h0l46.74-46.76A16,16,0,0,1,341.25,436a16.14,16.14,0,0,1-4.69,11.31Zm35,35a16,16,0,0,1-27.32-11.32,16.17,16.17,0,0,1,4.67-11.3h0l46.74-46.76A16,16,0,0,1,376.25,471a16.14,16.14,0,0,1-4.69,11.31Zm61.68,4.68a15.92,15.92,0,0,1-11.32-4.68l-12.81-12.82,21.56-21.57c.36-.36.62-.8,1-1.16l12.92,12.92a16,16,0,0,1-11.31,27.31Zm105-105a15.92,15.92,0,0,1-11.32-4.68l-19-19a8.75,8.75,0,0,0-12.38,12.37l19,19a16,16,0,0,1-11.32,27.31,15.92,15.92,0,0,1-11.32-4.68l-19-19a8.75,8.75,0,0,0-12.38,12.37l19,19a16,16,0,0,1-11.32,27.31,15.92,15.92,0,0,1-11.31-4.68l-17-17a32.83,32.83,0,0,0,.59-6.05,33.53,33.53,0,0,0-33.5-33.49c-.57,0-1.1.13-1.67.17,0-.57.17-1.11.17-1.68a33.53,33.53,0,0,0-33.5-33.49c-.57,0-1.1.13-1.67.17,0-.57.17-1.11.17-1.67a33.53,33.53,0,0,0-33.5-33.5c-.57,0-1.1.13-1.67.17,0-.57.17-1.11.17-1.67a33.5,33.5,0,0,0-57.19-23.69L206.38,367.5H177.91l-29.16-21.88V210h162a43.5,43.5,0,0,1,30.94,12.81l4.68,4.69-46,46a39.69,39.69,0,0,0,56.13,56.13l37.24-37.25L502.82,401.45a16,16,0,0,1-11.32,27.3Zm59.75-83.13L522.09,367.5H493.62l-93.68-93.69a9,9,0,0,0-12.37,0l-43.44,43.45a22.19,22.19,0,1,1-31.38-31.38L388.62,210H551.25ZM603.75,385h-35V192.5h35Z" transform="translate(-78.75 -8.75)"/><path d="M350,183.75a87.5,87.5,0,1,0-87.5-87.5A87.6,87.6,0,0,0,350,183.75ZM419.39,87.5H393.55c-1-21.37-5.46-40-12.39-53.85A70.11,70.11,0,0,1,419.39,87.5ZM393.54,105h25.85a70.12,70.12,0,0,1-38.24,53.85c6.93-13.8,11.43-32.48,12.39-53.85ZM350,26.25c9.95,0,24.07,23.6,26,61.25H324C325.93,49.85,340.05,26.25,350,26.25ZM376,105c-1.93,37.65-16.05,61.25-26,61.25s-24.07-23.6-26-61.25ZM318.85,33.65c-6.93,13.8-11.43,32.48-12.39,53.85H280.61a70.1,70.1,0,0,1,38.24-53.85ZM306.46,105c1,21.37,5.46,40.05,12.39,53.85A70.11,70.11,0,0,1,280.61,105Z" transform="translate(-78.75 -8.75)"/></svg>