<svg id="Шар_1" data-name="Шар 1" xmlns="http://www.w3.org/2000/svg" viewBox="0 0 478.92 497.77"><path d="M486.36,281V223.21L506,237.3a38.69,38.69,0,0,0,45.06-62.9L362,38.82a38.53,38.53,0,0,0-45.66-.42l-189.66,136a38.68,38.68,0,1,0,45.05,62.89h0L191.4,223.2V375.94a36.26,36.26,0,0,0,36.21,36.22H340c4.23,65.07,58.5,116.73,124.62,116.73A125,125,0,0,0,589.46,404c0-61.43-44.58-112.64-103.1-123ZM160.43,221.49A19.24,19.24,0,0,1,138,190.2l189.66-136a19.17,19.17,0,0,1,22.76.24l.17.13L539.77,190.21a19.25,19.25,0,0,1-22.42,31.29L344.56,97.59a9.71,9.71,0,0,0-11.32,0ZM210.85,376V209.26l128-91.82,128,91.82v69.88c-.78,0-1.56,0-2.35,0A124.28,124.28,0,0,0,392,302.41V286.77a44.63,44.63,0,0,0-44.58-44.58H330.36a44.63,44.63,0,0,0-44.58,44.58V392.7H227.64a16.77,16.77,0,0,1-16.78-16.76Zm161.71-56.3a124.44,124.44,0,0,0-32.36,73.06h-35V286.78a25.15,25.15,0,0,1,25.13-25.13h17.08a25.16,25.16,0,0,1,25.14,25.13Zm92,189.8A105.44,105.44,0,1,1,570,404,105.56,105.56,0,0,1,464.57,509.45Zm40.68-77.29c0,17.47-13.11,32.18-30.77,36.25l.18,7.19a9.73,9.73,0,0,1-9.49,10h-.24a9.72,9.72,0,0,1-9.71-9.49l-.18-7.48c-10.1-2.13-16.72-7.63-23-13.59a9.73,9.73,0,0,1,13.35-14.15c7.22,6.82,11.21,9.24,19.24,9.24,11.71,0,21.23-8,21.23-17.93s-9.52-17.92-21.23-17.92c-22.43,0-40.68-16.77-40.68-37.37,0-17.48,13.12-32.19,30.79-36.25l-.19-8.21a9.72,9.72,0,1,1,19.43-.46l.22,8.92c9.65,2.43,20.91,8,26,15.79a9.72,9.72,0,1,1-16.24,10.69c-2.32-3.53-13.53-8.4-19.35-8.4-11.71,0-21.24,8-21.24,17.93s9.53,17.92,21.24,17.92c22.41,0,40.66,16.76,40.66,37.36Z" transform="translate(-110.54 -31.12)"/></svg>