<?xml version="1.0" standalone="no"?>
<!DOCTYPE svg PUBLIC "-//W3C//DTD SVG 20010904//EN"
 "http://www.w3.org/TR/2001/REC-SVG-20010904/DTD/svg10.dtd">
<svg version="1.0" xmlns="http://www.w3.org/2000/svg"
 width="308.000000pt" height="308.000000pt" viewBox="0 0 308.000000 308.000000"
 preserveAspectRatio="xMidYMid meet">
<metadata>
Created by potrace 1.14, written by Peter Selinger 2001-2017
</metadata>
<g transform="translate(0.000000,308.000000) scale(0.100000,-0.100000)"
fill="#000000" stroke="none">
<path d="M222 2996 c6 -12 24 -37 40 -56 15 -19 28 -41 28 -48 0 -7 5 -10 10
-7 6 3 10 1 10 -5 0 -10 30 -57 55 -86 34 -40 44 -54 37 -54 -4 0 1 -5 10 -11
17 -10 54 4 70 26 4 6 8 6 8 2 0 -5 12 0 28 11 41 28 228 109 260 112 4 0 25
6 47 12 50 14 41 12 100 23 28 4 57 10 65 12 8 2 67 5 131 8 l116 4 -1 -514
c-1 -337 2 -515 9 -516 6 -1 146 -2 313 -3 l302 -1 1 25 c0 14 1 246 1 517 l1
492 106 -4 c145 -6 179 -10 294 -40 34 -9 67 -18 72 -19 57 -12 246 -100 339
-158 3 -2 24 24 47 57 24 33 47 62 51 63 4 2 8 9 8 15 0 7 10 25 23 40 12 16
31 41 43 55 12 15 26 36 32 48 l11 21 -1339 0 -1339 0 11 -21z"/>
<path d="M325 1730 c-16 -24 -14 -140 2 -140 8 0 13 12 13 30 0 28 2 30 41 30
38 0 40 -2 37 -27 -2 -18 2 -29 12 -31 12 -2 15 10 13 70 0 42 -6 74 -12 76
-6 2 -12 -5 -12 -15 -1 -10 -2 -25 -3 -33 -1 -9 -14 -16 -38 -17 -36 -3 -37
-2 -40 34 -2 29 -5 35 -13 23z"/>
<path d="M648 1719 c-36 -27 -38 -76 -5 -107 49 -46 127 -14 127 52 0 62 -72
94 -122 55z m96 -42 c7 -27 -19 -67 -42 -67 -26 0 -52 21 -56 46 -12 59 82 79
98 21z"/>
<path d="M959 1732 c-1 -4 -3 -37 -4 -74 -1 -49 2 -68 11 -68 7 0 14 10 16 22
4 30 37 32 50 2 6 -13 17 -24 25 -24 16 0 17 12 1 28 -10 10 -10 17 0 32 14
23 15 49 3 69 -9 14 -100 26 -102 13z m82 -29 c18 -18 3 -40 -30 -45 -28 -4
-31 -2 -31 22 0 15 2 29 5 32 8 8 45 2 56 -9z"/>
<path d="M1260 1665 l0 -75 44 0 c27 0 51 6 60 16 20 19 20 29 1 48 -9 9 -11
17 -5 21 16 10 11 44 -7 53 -10 5 -35 10 -55 10 l-38 1 0 -74z m83 36 c7 -7 2
-13 -14 -19 -31 -12 -45 -6 -45 18 0 15 6 19 25 15 13 -2 29 -9 34 -14z m0
-50 c4 -1 7 -8 7 -16 0 -16 -46 -32 -58 -20 -19 19 -2 45 27 40 9 -2 19 -4 24
-4z"/>
<path d="M1576 1668 c-31 -67 -32 -102 -3 -65 20 25 66 27 88 4 29 -32 34 -13
9 40 -12 26 -26 58 -31 70 -14 38 -29 27 -63 -49z m64 -15 c0 -6 -8 -10 -17
-8 -10 2 -21 4 -25 4 -3 1 -1 14 5 31 l11 30 13 -23 c7 -12 12 -27 13 -34z"/>
<path d="M1853 1726 c2 -6 13 -12 25 -14 20 -3 22 -9 22 -64 0 -43 3 -59 12
-56 9 3 13 25 12 65 -1 59 0 61 22 57 16 -3 24 0 24 9 0 10 -16 14 -60 14 -39
0 -59 -4 -57 -11z"/>
<path d="M2140 1665 c0 -56 3 -76 12 -73 17 6 17 140 0 146 -9 3 -12 -16 -12
-73z"/>
<path d="M2359 1723 c-4 -56 -4 -71 4 -96 15 -46 94 -50 113 -5 14 34 11 111
-3 115 -9 3 -13 -11 -13 -50 0 -66 -17 -86 -55 -69 -22 10 -25 18 -25 67 0 30
-4 55 -10 55 -5 0 -11 -8 -11 -17z"/>
<path d="M2670 1664 c0 -49 4 -74 11 -72 6 2 9 6 8 8 -4 8 21 50 29 50 4 0 16
-14 27 -30 11 -16 26 -30 33 -30 18 0 15 9 -13 46 -14 18 -25 35 -25 37 0 2
11 17 25 33 14 16 20 31 14 33 -6 2 -25 -13 -42 -33 -36 -40 -44 -44 -44 -18
0 38 -3 52 -13 52 -6 0 -10 -32 -10 -76z"/>
<path d="M963 1428 c2 -7 11 -12 21 -10 13 2 16 -7 16 -58 0 -45 3 -61 13 -57
7 2 12 23 12 58 0 48 2 54 23 57 44 7 21 22 -34 22 -40 0 -54 -3 -51 -12z"/>
<path d="M1257 1408 c-41 -88 -47 -108 -31 -108 7 0 14 7 14 15 0 22 69 20 86
-2 22 -32 27 -5 7 39 -11 24 -24 53 -27 66 -10 32 -31 27 -49 -10z m42 -45 c1
-7 -8 -13 -19 -13 -23 0 -23 0 -9 37 10 26 12 27 19 8 5 -11 9 -26 9 -32z"/>
<path d="M1517 1404 c1 -22 2 -54 2 -71 1 -35 21 -47 21 -13 0 13 7 20 20 20
11 0 25 -9 32 -20 7 -11 19 -20 27 -20 11 0 11 4 -2 23 -12 19 -12 24 -1 35
16 15 18 40 5 61 -5 7 -31 16 -57 18 l-49 5 2 -38z m78 2 c16 -12 17 -16 6
-30 -7 -8 -24 -15 -37 -14 -19 2 -24 8 -24 30 0 32 23 38 55 14z"/>
<path d="M1847 1428 c-3 -7 -17 -39 -31 -70 -21 -46 -23 -58 -11 -58 8 0 15 7
15 15 0 22 69 20 86 -2 26 -37 25 -1 -2 62 -27 62 -46 79 -57 53z m21 -76
c-27 -5 -30 1 -17 34 l11 29 12 -30 c11 -27 11 -30 -6 -33z"/>
<path d="M2106 1424 c-9 -8 -16 -19 -16 -23 0 -10 25 -31 52 -46 12 -5 20 -14
20 -20 -2 -12 -41 -15 -48 -4 -8 14 -24 10 -24 -6 0 -20 65 -31 86 -15 24 21
13 53 -24 69 -40 18 -36 37 6 33 33 -2 43 11 16 22 -27 10 -52 7 -68 -10z"/>
<path d="M1240 1090 c-1 -8 -3 -161 -6 -340 -6 -390 -7 -450 -14 -450 -3 0 -6
-33 -8 -73 -5 -108 -7 -125 -15 -133 -3 -4 -2 -14 3 -24 5 -10 8 -19 5 -21 -2
-2 79 -4 181 -3 121 1 181 -2 177 -9 -4 -6 -1 -7 8 -1 8 5 79 10 159 10 197 2
181 0 170 29 -6 16 -6 26 1 31 7 4 7 10 0 18 -6 7 -13 51 -16 97 -3 46 -8 111
-10 144 -3 33 -7 210 -9 393 -2 184 -7 337 -11 340 -3 4 -143 7 -311 7 -264 0
-304 -2 -304 -15z"/>
</g>
</svg>
