<svg id="Шар_1" data-name="Шар 1" xmlns="http://www.w3.org/2000/svg" viewBox="0 0 479.08 503.79"><path d="M529.74,403.54c-.12-.24-.26-.46-.39-.69a12.17,12.17,0,0,0-1-1.51c-.18-.22-.36-.44-.56-.65a11.4,11.4,0,0,0-1.53-1.33c-.15-.11-.28-.24-.43-.34a11.3,11.3,0,0,0-2.29-1.12c-.07,0-.14-.08-.22-.11l-1.37-.46a207.18,207.18,0,0,0,67.62-153.89c0-115.25-93.76-209-209-209a208.33,208.33,0,0,0-95.9,23.4,11.07,11.07,0,0,0-3.49-5.43A102.67,102.67,0,0,0,238.39,31l-.27-.05-.16,0a105.81,105.81,0,0,0-96.61,25.86,104.53,104.53,0,0,0-18.09,22.44,11.24,11.24,0,0,0-1.26,3,361.42,361.42,0,0,0-11.18,75.57C107.28,237.94,130,315.13,176.58,381A359.59,359.59,0,0,0,437.13,531.84a9,9,0,0,0,1,0,10.64,10.64,0,0,0,1.26-.07,104.1,104.1,0,0,0,36.07-11,105.92,105.92,0,0,0,53.25-65.49,9.92,9.92,0,0,0,.76-1.4,11.08,11.08,0,0,0,.58-3.83,105.84,105.84,0,0,0,2-11.7A100.76,100.76,0,0,0,530.62,406a10.83,10.83,0,0,0-.89-2.49Zm-20,13.31a.86.86,0,0,0,0,.16,77.51,77.51,0,0,1,.51,8.15c0,.68,0,1.37,0,2.06,0,2.62-.16,5.28-.44,8L356.24,381.56a83.78,83.78,0,0,1,10.5-13.34Zm57.36-173.42a185.08,185.08,0,0,1-69.86,145.51L367.54,344.83a11.21,11.21,0,0,0-11,2.21,106.85,106.85,0,0,0-31,47.69A252.89,252.89,0,0,1,214.27,240.18a106.82,106.82,0,0,0,23.19-2.73,10.29,10.29,0,0,0,1.13-.24,105.74,105.74,0,0,0,39.67-18.78l.12-.08c.19-.15.4-.27.59-.42s.28-.28.44-.42a9.72,9.72,0,0,0,.87-.83,10.13,10.13,0,0,0,.67-.8c.22-.29.43-.59.63-.91a9.27,9.27,0,0,0,.51-.92,10,10,0,0,0,.45-1c.12-.34.23-.67.32-1a10.89,10.89,0,0,0,.36-2.19c0-.21.07-.4.07-.6l1.57-125.89a185.82,185.82,0,0,1,95.66-26.52c102.91,0,186.62,83.72,186.62,186.62ZM261,203.23a83.33,83.33,0,0,1-14,7.67l0-153.47a79.79,79.79,0,0,1,15.71,8.94ZM465.2,500.92a82.12,82.12,0,0,1-27.19,8.5,341.76,341.76,0,0,1-51.09-8.95,338,338,0,0,1-192-132.4c-43.67-61.79-65-134.15-61.68-209.36A338.6,338.6,0,0,1,143.28,89.4a82.26,82.26,0,0,1,13.37-16.26,83.49,83.49,0,0,1,67.92-21.9l0,165.77a83.74,83.74,0,0,1-22.64-.08,11.22,11.22,0,0,0-12.63,13,274.83,274.83,0,0,0,138.2,191.87,11.21,11.21,0,0,0,16.45-8.07A84.62,84.62,0,0,1,346.72,402l157.87,55.13a83.61,83.61,0,0,1-39.39,43.83Z" transform="translate(-110.46 -28.1)"/><path d="M380.53,102.35a11.2,11.2,0,0,0,11.2-11.2V78.09a11.2,11.2,0,0,0-22.4,0V91.15A11.2,11.2,0,0,0,380.53,102.35Z" transform="translate(-110.46 -28.1)"/><path d="M532.49,254.64h13.3a11.2,11.2,0,1,0,0-22.4h-13.3a11.2,11.2,0,0,0,0,22.4Z" transform="translate(-110.46 -28.1)"/><path d="M313.86,312.89a11.21,11.21,0,0,0,15.84-.32l58.91-61.38a11.19,11.19,0,0,0,3.12-7.75V122.59a11.2,11.2,0,1,0-22.39,0V238.94l-55.8,58.12a11.19,11.19,0,0,0,.32,15.83Z" transform="translate(-110.46 -28.1)"/></svg>