<svg id="Шар_1" data-name="Шар 1" xmlns="http://www.w3.org/2000/svg" viewBox="0 0 508.38 368.59"><path d="M596.75,224,476,103.25a23.76,23.76,0,0,0-34.12,0,23.15,23.15,0,0,0-7,19.25c-1.76.88-2.63,1.75-4.38,2.62l-26.25,26.26a74.33,74.33,0,0,0-18.37,76.12l8.74,27.12-27.12-8.74a74.33,74.33,0,0,0-76.12,18.37L265.12,290.5a19.43,19.43,0,0,0-2.62,4.38,23.15,23.15,0,0,0-19.25,7,24.44,24.44,0,0,0-7,17.5c0,6.12,2.63,12.24,7,17.5L364,457.62a26,26,0,0,0,17.5,7c6.12,0,12.25-2.62,17.5-7a23.15,23.15,0,0,0,7-19.24c1.75-.88,2.62-1.76,4.38-2.63l26.24-26.25A74.36,74.36,0,0,0,455,333.38l-8.75-27.13L473.38,315A73.77,73.77,0,0,0,497,318.5a75,75,0,0,0,52.5-21.88l26.25-26.24a19.65,19.65,0,0,0,2.63-4.38h1.74c6.13,0,12.26-2.62,17.5-7a24.42,24.42,0,0,0,7-17.5A35.23,35.23,0,0,0,596.75,224ZM416.5,163.62l25.38-25.37,119,119-2.63,2.63-17.5-11.38c-21-14-45.5-18.38-70-14-20.13,4.38-38.5,14.88-51.63,30.62-3.5-4.37-5.24-9.62-7-14.87l-9.62-28C395.5,202.12,400.75,179.38,416.5,163.62ZM362.25,262.5l28.87,9.62c6.13,1.76,11.38,5.26,16.63,8.76C396.38,294,381.5,303.62,364,307.12a72.56,72.56,0,0,1-56.88-11.37l-14-9.63,9.63-9.62C319.38,260.75,342.12,255.5,362.25,262.5Zm24.5,182a6.88,6.88,0,0,1-9.63,0L255.51,322.88a6.34,6.34,0,0,1,0-8.75,6.87,6.87,0,0,1,9.62,0L385.88,434.88a6.25,6.25,0,0,1,.88,9.63Zm36.75-48.12-25.38,25.37L278.24,301.87l2.63-2.63,17.5,11.38A91.86,91.86,0,0,0,350,326.37a131.36,131.36,0,0,0,18.38-1.75c20.12-4.38,38.5-14.88,51.62-30.63,3.5,4.38,5.25,9.63,7,14.88l9.63,28.87c7.87,20.13,2.62,42.88-13.13,58.63Zm54.25-98.88-28.87-9.62c-6.13-1.76-11.38-5.26-16.63-8.76C443.62,266,458.5,256.38,476,252.88a72.56,72.56,0,0,1,56.88,11.37l14,9.63-9.63,9.62C520.62,299.25,497.88,304.5,477.75,297.5ZM584.5,246.75a6.85,6.85,0,0,1-9.62,0L453.26,125.13a6.81,6.81,0,0,1,9.62-9.63L583.63,236.26a6.63,6.63,0,0,1,1.75,4.37c0,1.75,0,4.38-.87,6.13Z" transform="translate(-96.25 -96.03)"/><path d="M323.75,446.25H105c-5.25,0-8.75,3.5-8.75,8.75s3.5,8.75,8.75,8.75H323.75c5.25,0,8.75-3.5,8.75-8.75S329,446.25,323.75,446.25Z" transform="translate(-96.25 -96.03)"/><path d="M148.75,376.25H245c5.25,0,8.75-3.5,8.75-8.75s-3.5-8.75-8.75-8.75H148.75c-5.25,0-8.75,3.5-8.75,8.75S143.5,376.25,148.75,376.25Z" transform="translate(-96.25 -96.03)"/><path d="M183.75,288.75h52.5c5.25,0,8.75-3.5,8.75-8.75s-3.5-8.75-8.75-8.75h-52.5c-5.25,0-8.75,3.5-8.75,8.75S178.5,288.75,183.75,288.75Z" transform="translate(-96.25 -96.03)"/><path d="M218.75,201.25h140c5.25,0,8.75-3.5,8.75-8.75s-3.5-8.75-8.75-8.75h-140c-5.25,0-8.75,3.5-8.75,8.75S213.5,201.25,218.75,201.25Z" transform="translate(-96.25 -96.03)"/><path d="M253.75,113.75h157.5c5.25,0,8.75-3.5,8.75-8.75s-3.5-8.75-8.75-8.75H253.75c-5.25,0-8.75,3.5-8.75,8.75S248.5,113.75,253.75,113.75Z" transform="translate(-96.25 -96.03)"/></svg>