<svg id="Шар_1" data-name="Шар 1" xmlns="http://www.w3.org/2000/svg" xmlns:xlink="http://www.w3.org/1999/xlink" viewBox="0 0 699.99 467.58"><defs><style>.cls-1{fill:none;}.cls-2{clip-path:url(#clip-path);}.cls-3{clip-path:url(#clip-path-2);}.cls-4{clip-path:url(#clip-path-3);}.cls-5{clip-path:url(#clip-path-4);}.cls-6{clip-path:url(#clip-path-5);}.cls-7{clip-path:url(#clip-path-6);}.cls-8{clip-path:url(#clip-path-7);}.cls-9{clip-path:url(#clip-path-8);}.cls-10{clip-path:url(#clip-path-9);}.cls-11{clip-path:url(#clip-path-10);}.cls-12{clip-path:url(#clip-path-11);}.cls-13{clip-path:url(#clip-path-12);}</style><clipPath id="clip-path" transform="translate(0 -58.88)"><rect class="cls-1" x="1.3" y="525.94" width="700" height="700"/></clipPath><clipPath id="clip-path-2" transform="translate(0 -58.88)"><rect class="cls-1" x="2.78" y="525.94" width="700" height="700"/></clipPath><clipPath id="clip-path-3" transform="translate(0 -58.88)"><rect class="cls-1" x="3.21" y="525.94" width="700" height="700"/></clipPath><clipPath id="clip-path-4" transform="translate(0 -58.88)"><rect class="cls-1" x="3.36" y="525.94" width="700" height="700"/></clipPath><clipPath id="clip-path-5" transform="translate(0 -58.88)"><rect class="cls-1" x="0.19" y="526.37" width="700" height="700"/></clipPath><clipPath id="clip-path-6" transform="translate(0 -58.88)"><rect class="cls-1" x="1.28" y="526.37" width="700" height="700"/></clipPath><clipPath id="clip-path-7" transform="translate(0 -58.88)"><rect class="cls-1" x="1.79" y="526.37" width="700" height="700"/></clipPath><clipPath id="clip-path-8" transform="translate(0 -58.88)"><rect class="cls-1" x="2.59" y="526.37" width="700" height="700"/></clipPath><clipPath id="clip-path-9" transform="translate(0 -58.88)"><rect class="cls-1" x="3.95" y="526.37" width="700" height="700"/></clipPath><clipPath id="clip-path-10" transform="translate(0 -58.88)"><rect class="cls-1" x="4.16" y="526.37" width="700" height="700"/></clipPath><clipPath id="clip-path-11" transform="translate(0 -58.88)"><rect class="cls-1" x="4.6" y="526.37" width="700" height="700"/></clipPath><clipPath id="clip-path-12" transform="translate(0 -58.88)"><rect class="cls-1" x="5.14" y="526.37" width="700" height="700"/></clipPath><symbol id="t" data-name="t" viewBox="0 0 0.27 0.31"><path d="M.27,0A.06.06,0,0,0,.22,0h0A.21.21,0,0,0,.05,0,.17.17,0,0,0,0,.16.14.14,0,0,0,.05.27a.16.16,0,0,0,.12,0h.1V.23L.22.25l0,0s0,0-.06,0a.14.14,0,0,1,0-.07.19.19,0,0,1,0-.08.06.06,0,0,1,.06,0h0s0,0,.05,0Z"/></symbol><symbol id="c" data-name="c" viewBox="0 0 0.17 0.23"><path d="M.17.17h0l0,0a.05.05,0,0,1-.05,0,.09.09,0,0,1,0,0V0H0V.23H.08v0l0,0H.17Z"/></symbol><symbol id="a" data-name="a" viewBox="0 0 0.25 0.23"><path d="M.25.12v0H.08s0,0,0,0h.1l.06,0V0A.07.07,0,0,0,.19,0h0A.2.2,0,0,0,0,0,.11.11,0,0,0,0,.11.12.12,0,0,0,0,.2a.16.16,0,0,0,.09,0,.15.15,0,0,0,.1,0,.1.1,0,0,0,0-.08ZM.17.14a0,0,0,0,1,0,0l0,0a.05.05,0,0,1,0,0s0,0,0,0Z"/></symbol><symbol id="f" data-name="f" viewBox="0 0 0.23 0.23"><path d="M.12.11l0,0h0v0H.16s0,0,0,0v0Zm.11,0V0H.17V0L.12,0h0S0,0,0,0s0,0,0,.06,0,0,0,0l.09,0H.17v0h0l0,0H.05a0,0,0,0,1,0,0V.23H.12S.19.22.2.2A.06.06,0,0,0,.23.14Z"/></symbol><symbol id="b" data-name="b" viewBox="0 0 0.19 0.3"><path d="M.12.3V.23H.19v0H.12V.05H.19V0H.12s0,0-.06,0a.11.11,0,0,0,0,.06V.19H0v0H.05V.3Z"/></symbol><symbol id="i" data-name="i" viewBox="0 0 0.25 0.33"><path d="M.17.2V.33H.25V0H.17V0l0,0h0A.11.11,0,0,0,0,0,.11.11,0,0,0,0,.11.12.12,0,0,0,0,.2a.11.11,0,0,0,.08,0h0S.17.21.17.2ZM.12.05h0a.43.43,0,0,1,0,.05s0,0,0,.05,0,0,0,0,0,0,0,0a.09.09,0,0,1,0,0,.07.07,0,0,1,0,0Z"/></symbol><symbol id="h" data-name="h" viewBox="0 0 0.25 0.33"><path d="M.12.05h0a.43.43,0,0,1,0,.05s0,0,0,.05,0,0,0,0,0,0,0,0a.09.09,0,0,1,0,0,.11.11,0,0,1,0,0ZM.08.2l0,0H.16A.06.06,0,0,0,.22.2a.12.12,0,0,0,0-.09A.11.11,0,0,0,.22,0,.06.06,0,0,0,.16,0h0l0,0V0H0V.33H.08Z"/></symbol><symbol id="g" data-name="g" viewBox="0 0 0.27 0.33"><path d="M0,.33H.08L.14.17l0,.16H.27L.17.08.14,0,.09,0h0V.05h0l0,0h0Z"/></symbol><symbol id="e" data-name="e" viewBox="0 0 0.08 0.33"><path d="M0,.33H.08V0H0Z"/></symbol><symbol id="s" data-name="s" viewBox="0 0 0.27 0.23"><path d="M.09.12,0,.23H.09L.14.17l0,.06H.27L.19.12.27,0H.19l0,.08L.09,0H0Z"/></symbol><symbol id="r" data-name="r" viewBox="0 0 0.19 0.33"><path d="M.19.33V.27H.12v0H.19v0H.12V0H.05V.19H0v0H.05v0a.07.07,0,0,0,0,0,.11.11,0,0,0,.08,0Z"/></symbol><symbol id="d" data-name="d" viewBox="0 0 0.25 0.23"><path d="M.12.19l0,0s0,0,0-.06a.07.07,0,0,1,0,0H.17a.08.08,0,0,1,0,.05.08.08,0,0,1,0,.06Zm0,0a.15.15,0,0,0,.1,0,.12.12,0,0,0,0-.09A.11.11,0,0,0,.22,0a.15.15,0,0,0-.1,0L0,0A.11.11,0,0,0,0,.11.12.12,0,0,0,0,.2.16.16,0,0,0,.12.23Z"/></symbol><symbol id="q" data-name="q" viewBox="0 0 0.38 0.23"><path d="M.22.19s0,0,0,0h0s0,0,0,0a.07.07,0,0,0,0-.06V0H.3V.13h0l0,0v0a.05.05,0,0,1-.05,0V0H.16V.13a.08.08,0,0,1,0,0,0,0,0,0,1,0,0s0,0,0,0a.09.09,0,0,1,0,0V0H0V.23H.08v0l0,0H.19S.21.21.22.19Z"/></symbol><symbol id="p" data-name="p" viewBox="0 0 0.23 0.33"><path d="M.23.14V0H.16V.17h0a0,0,0,0,1,0,0s0,0,0,0a.09.09,0,0,1,0,0V0H0V.33H.08V.2l0,0H.16A.06.06,0,0,0,.22.2S.23.17.23.14Z"/></symbol><symbol id="o" data-name="o" viewBox="0 0 0.27 0.31"><path d="M0,.31H.08L.19.09V.31H.27V0H.19L.06.22V0H0Z"/></symbol><symbol id="n" data-name="n" viewBox="0 0 0.23 0.23"><path d="M0,.09V.23H.08V.06H.14a.14.14,0,0,1,0,.06V.23H.23V0H.16V0l0,0h0S0,0,0,0A.08.08,0,0,0,0,.09Z"/></symbol><symbol id="m" data-name="m" viewBox="0 0 0.23 0.23"><path d="M.23.14V0H.16V.17h0a0,0,0,0,1,0,0s0,0,0,0a.09.09,0,0,1,0,0V0H0V.23H.08v0l0,0H.16A.06.06,0,0,0,.22.2s0,0,0-.06Z"/></symbol><symbol id="l" data-name="l" viewBox="0 0 0.25 0.31"><path d="M0,.31H.12a.15.15,0,0,0,.1,0s0,0,0-.08a.08.08,0,0,0,0-.07.15.15,0,0,0-.1,0h0V0H0ZM.08.25V.17H.16s0,0,0,0a0,0,0,0,1,0,0l0,0Z"/></symbol><symbol id="k" data-name="k" viewBox="0 0 0.13 0.42"><path d="M.05.33H.12V.09A.06.06,0,0,0,.09,0,.06.06,0,0,0,0,0H0V.05H0s0,0,0,0Zm0,.09H.12V.36H.05Z"/></symbol><symbol id="j" data-name="j" viewBox="0 0 0.22 0.23"><path d="M.22.23V.17h0s0,0,0,0L.09.16a.09.09,0,0,1,0,0,.11.11,0,0,1,0,0H.22V0H.14A.2.2,0,0,0,0,0,.11.11,0,0,0,0,.11.12.12,0,0,0,0,.2a.2.2,0,0,0,.11,0H.22Z"/></symbol></defs><path d="M136.33,361.27h36.79v44.56H128.56V361.27Zm21.34,15.53H144.1v13.49h13.57Z" transform="translate(0 -58.88)"/><path d="M323.2,361.27H360v44.56H315.52V361.27Zm21.34,15.53H331v13.49h13.57Z" transform="translate(0 -58.88)"/><path d="M226.39,361.27h36.79v44.56H218.62V361.27Zm21.34,15.53H234.16v13.49h13.57Z" transform="translate(0 -58.88)"/><path d="M126.43,467.21h195v14.86h-195Z" transform="translate(0 -58.88)"/><path d="M63.43,498.79c-20.83-96-44-193.78-62.83-290-3.33-16.64,7.77-33,24.24-36.53C211.45,132.31,401,97,588.25,59.5a31.6,31.6,0,0,1,37,24.67l16.22,81.18h27a31.59,31.59,0,0,1,31.5,31.5V493.24a31.58,31.58,0,0,1-31.5,31.42H94.4a31.66,31.66,0,0,1-31-25.87ZM77.85,223.57H685.14V196.85a16.72,16.72,0,0,0-16.64-16.64H94.41a16.65,16.65,0,0,0-16.57,16.64Zm607.29,55.49H77.85V493.24A16.58,16.58,0,0,0,94.41,509.8H668.5a16.65,16.65,0,0,0,16.65-16.56Zm0-40.63H77.85v25.78H685.14Zm-58.73-73.08-15.7-78.28a16.63,16.63,0,0,0-19.55-13L135.3,165.35ZM68.71,178.67,28,186.86A16.6,16.6,0,0,0,15.1,206L62.91,426.39V196.84a31.82,31.82,0,0,1,5.8-18.18Z" transform="translate(0 -58.88)"/><path d="M594,407.11A35.81,35.81,0,1,1,574.6,473a35.81,35.81,0,1,1,0-60.19A34.94,34.94,0,0,1,594,407.11Zm-30.65,54.46a35.78,35.78,0,0,1,.09-37.3c-13.66-5.63-28.51,3.84-28.51,18.61a20.36,20.36,0,0,0,27.83,18.95Zm30.65-39a20.36,20.36,0,1,0,20.32,20.32A20.27,20.27,0,0,0,594,422.56Z" transform="translate(0 -58.88)"/><use width="0.27" height="0.31" transform="matrix(1, 0, 0, -1, 0.02, 467.06)" xlink:href="#t"/><use width="0.17" height="0.23" transform="matrix(1, 0, 0, -1, 0.34, 467.06)" xlink:href="#c"/><use width="0.25" height="0.23" transform="matrix(1, 0, 0, -1, 0.54, 467.06)" xlink:href="#a"/><use width="0.23" height="0.23" transform="matrix(1, 0, 0, -1, 0.83, 467.06)" xlink:href="#f"/><use width="0.19" height="0.3" transform="matrix(1, 0, 0, -1, 1.1, 467.06)" xlink:href="#b"/><g class="cls-2"><use width="0.25" height="0.23" transform="matrix(1, 0, 0, -1, 1.32, 467.06)" xlink:href="#a"/></g><use width="0.25" height="0.33" transform="matrix(1, 0, 0, -1, 1.61, 467.06)" xlink:href="#i"/><use width="0.25" height="0.33" transform="matrix(1, 0, 0, -1, 2.08, 467.06)" xlink:href="#h"/><use width="0.27" height="0.33" transform="matrix(1, 0, 0, -1, 2.36, 467.15)" xlink:href="#g"/><g class="cls-3"><use width="0.23" height="0.23" transform="matrix(1, 0, 0, -1, 2.8, 467.06)" xlink:href="#f"/></g><use width="0.08" height="0.33" transform="matrix(1, 0, 0, -1, 3.1, 467.06)" xlink:href="#e"/><g class="cls-4"><use width="0.08" height="0.33" transform="matrix(1, 0, 0, -1, 3.25, 467.06)" xlink:href="#e"/></g><g class="cls-5"><use width="0.25" height="0.23" transform="matrix(1, 0, 0, -1, 3.38, 467.06)" xlink:href="#a"/></g><use width="0.27" height="0.23" transform="matrix(1, 0, 0, -1, 3.65, 467.06)" xlink:href="#s"/><use width="0.19" height="0.33" transform="matrix(1, 0, 0, -1, 0, 467.49)" xlink:href="#r"/><g class="cls-6"><use width="0.17" height="0.23" transform="matrix(1, 0, 0, -1, 0.22, 467.49)" xlink:href="#c"/></g><use width="0.25" height="0.23" transform="matrix(1, 0, 0, -1, 0.41, 467.49)" xlink:href="#d"/><use width="0.38" height="0.23" transform="matrix(1, 0, 0, -1, 0.72, 467.49)" xlink:href="#q"/><g class="cls-7"><use width="0.19" height="0.3" transform="matrix(1, 0, 0, -1, 1.28, 467.49)" xlink:href="#b"/></g><use width="0.23" height="0.33" transform="matrix(1, 0, 0, -1, 1.52, 467.49)" xlink:href="#p"/><g class="cls-8"><use width="0.25" height="0.23" transform="matrix(1, 0, 0, -1, 1.8, 467.49)" xlink:href="#a"/></g><use width="0.27" height="0.31" transform="matrix(1, 0, 0, -1, 2.28, 467.49)" xlink:href="#o"/><g class="cls-9"><use width="0.25" height="0.23" transform="matrix(1, 0, 0, -1, 2.6, 467.49)" xlink:href="#d"/></g><use width="0.23" height="0.23" transform="matrix(1, 0, 0, -1, 2.91, 467.49)" xlink:href="#n"/><use width="0.23" height="0.23" transform="matrix(1, 0, 0, -1, 3.21, 467.49)" xlink:href="#m"/><use width="0.25" height="0.31" transform="matrix(1, 0, 0, -1, 3.68, 467.49)" xlink:href="#l"/><g class="cls-10"><use width="0.17" height="0.23" transform="matrix(1, 0, 0, -1, 3.98, 467.49)" xlink:href="#c"/></g><g class="cls-11"><use width="0.25" height="0.23" transform="matrix(1, 0, 0, -1, 4.18, 467.49)" xlink:href="#d"/></g><use width="0.13" height="0.42" transform="matrix(1, 0, 0, -1, 4.44, 467.58)" xlink:href="#k"/><g class="cls-12"><use width="0.25" height="0.23" transform="matrix(1, 0, 0, -1, 4.61, 467.49)" xlink:href="#a"/></g><use width="0.22" height="0.23" transform="matrix(1, 0, 0, -1, 4.9, 467.49)" xlink:href="#j"/><g class="cls-13"><use width="0.19" height="0.3" transform="matrix(1, 0, 0, -1, 5.14, 467.49)" xlink:href="#b"/></g></svg>