<svg id="Шар_1" data-name="Шар 1" xmlns="http://www.w3.org/2000/svg" xmlns:xlink="http://www.w3.org/1999/xlink" viewBox="0 0 304.04 608.44"><defs><style>.cls-1{fill:none;}.cls-2{clip-path:url(#clip-path);}</style><clipPath id="clip-path" transform="translate(-137.83 -17.5)"><rect class="cls-1" x="136.89" y="625.63" width="700" height="700"/></clipPath><symbol id="c" data-name="c" viewBox="0 0 12.84 12.56"><path d="M12.84,6.33V5.23H3.91a2.79,2.79,0,0,1,1-2A3.56,3.56,0,0,1,7.2,2.55a8.64,8.64,0,0,1,2.47.36A12.51,12.51,0,0,1,12.28,4V1A17,17,0,0,0,9.56.27,13.86,13.86,0,0,0,6.84,0a7.25,7.25,0,0,0-5,1.64A6,6,0,0,0,0,6.28a6,6,0,0,0,1.77,4.59,6.73,6.73,0,0,0,4.87,1.69,6.05,6.05,0,0,0,4.5-1.7,6.13,6.13,0,0,0,1.7-4.53ZM8.91,7.59a2.41,2.41,0,0,1-.64,1.75A2.16,2.16,0,0,1,6.61,10,2.66,2.66,0,0,1,4.8,9.39a2.87,2.87,0,0,1-.86-1.8Z"/></symbol></defs><path d="M406.88,74.38A56.88,56.88,0,1,0,350,131.25,56.76,56.76,0,0,0,406.88,74.38Zm-87.5,0A30.63,30.63,0,1,1,350,105,30.44,30.44,0,0,1,319.38,74.38Z" transform="translate(-137.83 -17.5)"/><path d="M258.12,214.38v91.88A52.14,52.14,0,0,0,297.49,357V490a52.5,52.5,0,0,0,105,0V357a52.15,52.15,0,0,0,39.38-50.75V214.38A56.76,56.76,0,0,0,385,157.51H315A56.75,56.75,0,0,0,258.12,214.38Zm26.25,0A30.43,30.43,0,0,1,315,183.76h70a30.43,30.43,0,0,1,30.63,30.62v91.88a26.33,26.33,0,0,1-26.25,26.25,12.89,12.89,0,0,0-13.13,13.12V490a26.25,26.25,0,0,1-52.5,0V345.63a12.88,12.88,0,0,0-13.12-13.12,26.33,26.33,0,0,1-26.25-26.25Z" transform="translate(-137.83 -17.5)"/><g class="cls-2"><use width="12.84" height="12.56" transform="matrix(1, 0, 0, -1, 0, 608.44)" xlink:href="#c"/></g></svg>